<?xml version="1.0" encoding="UTF-8"?>
<svg width="216px" height="40px" viewBox="0 0 216 40" version="1.1" xmlns="http://www.w3.org/2000/svg" xmlns:xlink="http://www.w3.org/1999/xlink">
    <title>Logo</title>
    <g id="Page-1" stroke="none" stroke-width="1" fill="none" fill-rule="evenodd">
        <g id="Artboard" transform="translate(-27.000000, -115.000000)" fill="#222222">
            <path d="M44.4078998,137.8674 C45.5553998,137.7061 47.7792998,138.0367 48.7447998,138.5169 C48.9307998,138.5956 49.3699998,138.82 49.7181998,138.9931 C50.4897998,139.3631 51.9301998,140.6502 52.4643998,141.4177 C52.6779998,141.709 53.0103998,142.2797 53.2121998,142.6654 C53.5168998,143.2597 53.6237998,143.366 53.8650998,143.2873 C55.0640998,142.9448 55.5151998,142.9173 56.3026998,143.1298 C56.7299998,143.2479 57.1296998,143.3542 57.1691998,143.3542 C57.2206998,143.3542 57.3947998,143.0354 57.5807998,142.6497 C58.5145998,140.662 60.4891998,138.9774 62.8079998,138.2217 C63.7140998,137.9265 64.1018998,137.8753 65.4076998,137.8753 C66.7688998,137.8753 67.0616998,137.9265 68.0351998,138.2729 C70.1125998,139.0286 71.7151998,140.2881 72.7399998,142.0238 C73.7252998,143.6691 73.8716998,144.2122 73.8716998,146.4675 C73.8598998,148.3765 73.8479998,148.4946 73.4601998,149.4628 C72.4590998,151.9307 70.6625998,153.6664 68.0746998,154.6347 C67.3030998,154.9141 67.0102998,154.9535 65.2770998,154.9535 C63.4647998,154.9417 63.2906998,154.9141 62.4122998,154.556 C59.2387998,153.2571 57.3868998,151.0018 56.8130998,147.7152 C56.5716998,146.377 56.5083998,146.2274 55.9069998,145.9244 C55.0798998,145.4875 54.0787998,146.1487 54.0787998,147.117 C54.0787998,148.7504 53.0262998,151.0293 51.6254998,152.4345 C50.6005998,153.4696 49.9199998,153.9065 48.4400998,154.5284 C47.6130998,154.863 47.2529998,154.9299 45.8798998,154.981 C44.0121998,155.0637 43.0941998,154.8905 41.6142998,154.1742 C39.2439998,153.0091 37.5107998,150.7656 36.9370798,148.0616 C36.8975098,147.916 36.8421198,147.4004 36.7906798,146.9084 C36.6996598,145.9008 36.9252098,146.0188 34.6182798,145.7158 C31.8167198,145.3419 30.4713398,145.6213 29.8857098,146.6958 C29.6166298,147.1996 29.6166298,147.2114 30.0044098,148.1403 C30.1349898,148.4316 27.9111558,149.9154 27.6974778,149.6635 C26.9377334,148.7622 26.7636298,146.6801 27.3492658,145.515 C27.7884928,144.6531 28.8014898,143.7006 29.7867798,143.2479 C30.5069598,142.9016 30.6533598,142.8897 32.6793498,142.8897 C34.2384098,142.8897 35.1445598,142.9567 36.0507098,143.1417 C36.7273598,143.2755 37.3010998,143.3699 37.3287998,143.3424 C37.3446998,143.3148 37.5820998,142.8779 37.8629998,142.3741 C38.7532998,140.7289 39.9958998,139.5481 41.7408998,138.6743 C42.3937998,138.3594 43.6362998,137.9737 44.4078998,137.8674 Z M46.5525998,140.7171 C45.5672998,140.5321 45.1557998,140.5439 44.1150998,140.7722 C41.7922998,141.276 40.0076998,143.2125 39.6475998,145.5977 C39.2083998,148.5812 40.9929998,151.2852 43.9528998,152.1078 C45.1517998,152.4384 45.6068998,152.4384 46.8057998,152.1196 C47.9137998,151.8401 48.4835998,151.5646 49.1918998,150.9664 C52.3772998,148.2623 51.8865998,143.2243 48.2461998,141.3272 C47.7515998,141.0753 46.9798998,140.7958 46.5525998,140.7171 Z M66.6145998,140.7564 C65.5501998,140.5321 65.0554998,140.5321 64.0029998,140.7761 C60.3624998,141.5712 58.3919998,145.7591 60.0973998,149.0613 C61.2686998,151.3442 63.9356998,152.7218 66.2544998,152.2573 C68.0905998,151.8834 69.8790998,150.6121 70.5715998,149.1794 C71.7982998,146.6565 71.2798998,143.9288 69.2538998,142.1104 C68.3754998,141.3114 67.7462998,140.9965 66.6145998,140.7564 Z M62.4287921,115.000739 C63.811931,115.00546 64.8694998,115.032907 64.8694998,115.086043 C64.8694998,115.130125 64.5276758,115.511755 64.0505686,115.995153 L63.8016976,116.244242 L63.6705998,116.3731 C63.0176998,117.02254 62.4715998,117.59325 62.4715998,117.63261 C62.4715998,117.67197 64.2601998,117.69953 66.4443998,117.71133 C70.7496998,117.71133 72.0039998,117.83334 75.0033998,118.5615 C76.4674998,118.90786 78.3351998,119.59666 78.3351998,119.76985 C78.3351998,119.86431 76.6692998,120.92309 73.8954998,122.60768 C72.2295998,123.61529 72.0158998,123.85538 72.8032998,123.86719 C73.1633998,123.86719 74.7501998,124.23717 75.8026998,124.55599 C76.8275998,124.8748 78.9999998,125.8549 78.9999998,126.0005 C78.9999998,126.091 77.3736998,127.0081 74.6393998,128.4526 C73.9587998,128.8108 73.4007998,129.1414 73.4007998,129.1965 C73.4007998,129.2516 73.7450998,129.5271 74.1724998,129.8066 C75.2131998,130.5111 76.1469998,131.5423 76.5584998,132.4319 C76.7444998,132.8294 76.8631998,133.1994 76.8235998,133.2387 C76.7840998,133.2663 76.3725998,133.3608 75.9055998,133.4119 C75.2609817,133.5035 74.7712329,133.575847 74.4051566,133.634615 L74.1533004,133.676234 C73.6940155,133.754734 73.4954453,133.805873 73.4522998,133.8488 C73.4007998,133.8882 73.6144998,134.4156 73.9191998,135.0139 C74.2278998,135.6239 74.4256998,136.1553 74.3742998,136.1946 C74.2555998,136.3009 70.4844998,136.6473 69.3369998,136.6591 L68.5376998,136.6591 L67.3782998,134.3369 C67.0031798,133.57172 66.6608198,132.864644 66.446951,132.404413 L66.3511674,132.195741 C66.2669778,132.009388 66.2188998,131.89261 66.2188998,131.869 C66.2030998,131.7785 66.0961998,131.684 65.9774998,131.6447 C65.8429998,131.6053 64.9644998,131.3377 64.0029998,131.0346 C59.2703998,129.5389 55.1788998,128.9013 50.3393998,128.9013 C46.5960998,128.9013 43.2365998,129.2831 40.6763998,130.027 C40.3163998,130.1333 39.7583998,130.2789 39.4378998,130.3576 C38.8126998,130.515 38.8007998,130.5426 37.9064998,132.8097 C36.9845598,135.1556 34.2542298,140.9257 34.0128498,141.0044 C33.9455798,141.0162 33.4390798,141.0162 32.8930198,140.9769 C32.1609698,140.9099 31.8958498,140.843 31.8681498,140.6974 C31.8474865,140.557456 31.8268229,140.421933 31.8054806,140.28754 L31.7616901,140.019281 C31.7165927,139.750575 31.6669712,139.477601 31.6073981,139.174007 L31.5443069,138.859232 C31.3884157,138.096387 31.1684935,137.119022 30.8155898,135.5924 C30.1231198,132.5696 29.2683998,130.0624 28.6036298,129.1493 L28.3226798,128.7517 L28.8291698,128.1968 L29.3475498,127.6418 L28.3741198,127.6024 C27.8517968,127.5749 27.4125718,127.5355 27.4125718,127.4962 C27.4125718,127.3112 28.2000098,125.9178 28.8252198,124.97713 C29.8896498,123.387 31.1163198,122.03303 32.3429898,121.06478 C33.3441098,120.28152 34.7963298,119.35263 35.0495798,119.35263 C35.1049798,119.35263 35.1445498,119.62028 35.1445498,119.9509 C35.1445498,120.29727 35.2118198,120.54917 35.2909598,120.54917 C35.3700998,120.54917 35.7460198,120.29726 36.1179798,119.97845 C38.5831998,117.90813 41.7566998,116.17237 43.0347998,116.17237 C43.3790998,116.17237 43.4067998,116.19992 43.3275998,116.53054 C43.2761998,116.74309 43.0624998,117.28625 42.8487998,117.75069 C42.6351998,118.2112 42.5005998,118.62448 42.5282998,118.66384 C42.5678998,118.69139 42.9397998,118.53395 43.3671998,118.29386 C46.2715998,116.71947 51.5264998,115.459957 56.6033998,115.113591 C57.3113271,115.064928 58.5974362,115.030839 59.947621,115.013404 L60.4559398,115.007651 C60.7954825,115.004341 61.1350135,115.002088 61.4664998,115.000926 Z M102.6125,138.0352 L100.8797,138.0352 L100.8797,144.608 L98.9999998,144.608 L98.9999998,129.9749 L100.8797,129.9749 L100.8797,136.4271 L102.3482,136.4271 L107.3312,129.9749 L109.671,129.9749 L104.2278,137.0704 L110.0724,144.608 L107.7718,144.608 L102.6125,138.0352 Z M120.1952,133.7337 L120.1952,144.608 L118.3743,144.608 L118.3743,135.2714 L114.7716,135.2714 L114.5562,139.3417 C114.4387,141.2111 114.132,142.5477 113.6359,143.3518 C113.1464,144.1558 112.3665,144.5745 111.2961,144.608 L110.5717,144.608 L110.5717,142.9698 L111.0906,142.9296 C111.678,142.8626 112.0989,142.5142 112.3535,141.8844 C112.608,141.2546 112.7712,140.0888 112.843,138.3869 L113.0388,133.7337 L120.1952,133.7337 Z M126.5684,141.8844 L129.035,133.7337 L130.974,133.7337 L126.7153,146.2864 C126.0561,148.0955 125.0086,149 123.5727,149 L123.2301,148.9698 L122.5546,148.8392 L122.5546,147.3317 L123.0441,147.3719 C123.6576,147.3719 124.134,147.2446 124.4734,146.99 C124.8193,146.7353 125.1032,146.2697 125.3251,145.593 L125.7265,144.4874 L121.9476,133.7337 L123.9251,133.7337 L126.5684,141.8844 Z M137.249,134.3568 C138.581,134.3568 139.645,134.8157 140.441,135.7337 C141.244,136.6449 141.645,137.8476 141.645,139.3417 L141.645,139.5126 C141.645,140.5377 141.452,141.4556 141.067,142.2663 C140.682,143.0704 140.127,143.6968 139.403,144.1457 C138.685,144.5879 137.856,144.809 136.916,144.809 C135.494,144.809 134.348,144.3233 133.48,143.3518 C132.612,142.3735 132.178,141.0637 132.178,139.4221 L132.178,138.5176 C132.178,136.2328 132.589,134.4171 133.412,133.0704 C134.24,131.7236 135.461,130.9028 137.073,130.608 C137.987,130.4405 138.604,130.2362 138.923,129.995 C139.243,129.7538 139.403,129.4221 139.403,129 L140.891,129 C140.891,129.8375 140.705,130.4908 140.333,130.9598 C139.968,131.4288 139.38,131.7605 138.571,131.9548 L137.22,132.2663 C136.143,132.5276 135.334,132.9698 134.792,133.593 C134.257,134.2094 133.908,135.0335 133.744,136.0653 C134.704,134.9263 135.872,134.3568 137.249,134.3568 Z M136.897,135.8844 C136.009,135.8844 135.304,136.1926 134.782,136.809 C134.26,137.4188 133.999,138.2663 133.999,139.3518 L133.999,139.5126 C133.999,140.6784 134.26,141.603 134.782,142.2864 C135.311,142.9631 136.022,143.3015 136.916,143.3015 C137.817,143.3015 138.528,142.9598 139.051,142.2764 C139.573,141.593 139.834,140.5946 139.834,139.2814 C139.834,138.2563 139.569,137.4355 139.041,136.8191 C138.519,136.196 137.804,135.8844 136.897,135.8844 Z M152.375,135.0603 C151.729,135.0603 151.167,135.2714 150.691,135.6935 C150.221,136.1156 149.986,136.6147 149.986,137.191 L148.263,137.191 C148.263,136.5678 148.455,135.9715 148.841,135.402 C149.226,134.8325 149.738,134.3802 150.378,134.0452 C151.017,133.7035 151.683,133.5327 152.375,133.5327 C153.752,133.5327 154.865,134.0452 155.713,135.0704 C156.568,136.0888 156.996,137.4221 156.996,139.0704 L156.996,139.3819 C156.996,140.4003 156.8,141.3317 156.408,142.1759 C156.023,143.0134 155.478,143.6633 154.773,144.1256 C154.075,144.5812 153.275,144.809 152.375,144.809 C151.2,144.809 150.221,144.4338 149.438,143.6834 C148.654,142.933 148.263,141.9983 148.263,140.8794 L149.986,140.8794 C149.986,141.5628 150.218,142.139 150.681,142.608 C151.144,143.0704 151.709,143.3015 152.375,143.3015 C153.151,143.3015 153.791,142.9933 154.293,142.3769 C154.796,141.7605 155.086,140.9129 155.165,139.8342 L151.19,139.8342 L151.19,138.3065 L155.145,138.3065 C155.054,137.3283 154.763,136.5444 154.274,135.9548 C153.784,135.3585 153.151,135.0603 152.375,135.0603 Z M162.742,139.9749 L161.421,139.9749 L161.421,144.608 L159.6,144.608 L159.6,133.7337 L161.421,133.7337 L161.421,138.3367 L162.605,138.3367 L166.169,133.7337 L168.362,133.7337 L164.172,138.9598 L168.714,144.608 L166.413,144.608 L162.742,139.9749 Z M174.363,143.2915 C175.009,143.2915 175.574,143.0905 176.056,142.6884 C176.539,142.2864 176.807,141.7839 176.859,141.1809 L178.573,141.1809 C178.54,141.804 178.331,142.397 177.946,142.9598 C177.561,143.5226 177.045,143.9715 176.399,144.3065 C175.76,144.6415 175.081,144.809 174.363,144.809 C172.92,144.809 171.772,144.3166 170.917,143.3317 C170.068,142.34 169.644,140.9866 169.644,139.2714 L169.644,138.9598 C169.644,137.9012 169.833,136.9598 170.212,136.1357 C170.59,135.3116 171.132,134.6717 171.837,134.2161 C172.548,133.7605 173.387,133.5327 174.353,133.5327 C175.541,133.5327 176.526,133.8978 177.31,134.6281 C178.099,135.3585 178.52,136.3065 178.573,137.4724 L176.859,137.4724 C176.807,136.7688 176.546,136.1926 176.076,135.7437 C175.613,135.2881 175.038,135.0603 174.353,135.0603 C173.433,135.0603 172.718,135.402 172.209,136.0854 C171.707,136.7621 171.455,137.7437 171.455,139.0302 L171.455,139.3819 C171.455,140.6348 171.707,141.5997 172.209,142.2764 C172.712,142.9531 173.43,143.2915 174.363,143.2915 Z M189.273,144.608 L187.462,144.608 L187.462,135.2714 L182.586,135.2714 L182.586,144.608 L180.765,144.608 L180.765,133.7337 L189.273,133.7337 L189.273,144.608 Z M196.576,144.809 C195.14,144.809 193.972,144.3266 193.071,143.3618 C192.171,142.3903 191.72,141.0938 191.72,139.4724 L191.72,139.1307 C191.72,138.0519 191.919,137.0905 192.318,136.2462 C192.722,135.3953 193.284,134.732 194.001,134.2563 C194.726,133.7739 195.509,133.5327 196.351,133.5327 C197.728,133.5327 198.798,133.9983 199.562,134.9296 C200.326,135.861 200.708,137.1943 200.708,138.9296 L200.708,139.7035 L193.532,139.7035 C193.558,140.7755 193.861,141.6432 194.442,142.3065 C195.029,142.9631 195.773,143.2915 196.674,143.2915 C197.314,143.2915 197.855,143.1575 198.299,142.8894 C198.743,142.6214 199.131,142.2663 199.464,141.8241 L200.57,142.7085 C199.683,144.1089 198.351,144.809 196.576,144.809 Z M196.351,135.0603 C195.62,135.0603 195.007,135.335 194.511,135.8844 C194.014,136.4271 193.708,137.191 193.59,138.1759 L198.896,138.1759 L198.896,138.0352 C198.844,137.0905 198.596,136.3601 198.152,135.8442 C197.709,135.3216 197.108,135.0603 196.351,135.0603 Z M211.76,139.2915 C211.76,140.9464 211.392,142.2797 210.654,143.2915 C209.917,144.3032 208.918,144.809 207.658,144.809 C206.373,144.809 205.361,144.3903 204.623,143.5528 L204.623,148.7889 L202.812,148.7889 L202.812,133.7337 L204.467,133.7337 L204.555,134.9397 C205.292,134.0017 206.317,133.5327 207.629,133.5327 C208.902,133.5327 209.907,134.0251 210.644,135.0101 C211.388,135.995 211.76,137.3652 211.76,139.1206 L211.76,139.2915 Z M209.949,139.0804 C209.949,137.8543 209.695,136.8861 209.186,136.1759 C208.677,135.4657 207.978,135.1106 207.091,135.1106 C205.994,135.1106 205.172,135.6097 204.623,136.608 L204.623,141.804 C205.165,142.7956 205.994,143.2915 207.11,143.2915 C207.978,143.2915 208.667,142.9397 209.176,142.2362 C209.691,141.526 209.949,140.474 209.949,139.0804 Z M221.159,135.2412 L217.605,135.2412 L217.605,144.608 L215.794,144.608 L215.794,135.2412 L212.309,135.2412 L212.309,133.7337 L221.159,133.7337 L221.159,135.2412 Z M222.03,139.0704 C222.03,138.005 222.232,137.0469 222.637,136.196 C223.048,135.3451 223.616,134.6884 224.34,134.2261 C225.071,133.7638 225.904,133.5327 226.837,133.5327 C228.279,133.5327 229.444,134.0452 230.332,135.0704 C231.226,136.0955 231.673,137.459 231.673,139.1608 L231.673,139.2915 C231.673,140.3501 231.474,141.3015 231.076,142.1457 C230.684,142.9832 230.12,143.6365 229.382,144.1055 C228.651,144.5745 227.809,144.809 226.856,144.809 C225.421,144.809 224.256,144.2965 223.361,143.2714 C222.474,142.2462 222.03,140.8894 222.03,139.201 L222.03,139.0704 Z M223.851,139.2915 C223.851,140.4975 224.122,141.4657 224.663,142.196 C225.212,142.9263 225.943,143.2915 226.856,143.2915 C227.777,143.2915 228.508,142.9229 229.049,142.1859 C229.591,141.4422 229.862,140.4037 229.862,139.0704 C229.862,137.8777 229.585,136.9129 229.03,136.1759 C228.482,135.4322 227.751,135.0603 226.837,135.0603 C225.943,135.0603 225.221,135.4255 224.673,136.1558 C224.125,136.8861 223.851,137.9313 223.851,139.2915 Z M234.111,144.608 L234.111,133.7337 L238.242,133.7337 C239.652,133.7337 240.732,133.9883 241.483,134.4975 C242.24,135 242.618,135.7404 242.618,136.7186 C242.618,137.2211 242.471,137.6767 242.178,138.0854 C241.884,138.4874 241.45,138.7956 240.876,139.01 C241.515,139.1642 242.028,139.4657 242.413,139.9146 C242.804,140.3635 243,140.8995 243,141.5226 C243,142.5209 242.641,143.2848 241.923,143.8141 C241.212,144.3434 240.203,144.608 238.898,144.608 L234.111,144.608 Z M235.922,139.8342 L235.922,143.1106 L238.918,143.1106 C239.675,143.1106 240.239,142.9665 240.611,142.6784 C240.99,142.3903 241.179,141.9849 241.179,141.4623 C241.179,140.3769 240.402,139.8342 238.849,139.8342 L235.922,139.8342 Z M235.922,138.3467 L238.262,138.3467 C239.959,138.3467 240.807,137.8375 240.807,136.8191 C240.807,135.8007 240.004,135.2747 238.399,135.2412 L235.922,135.2412 L235.922,138.3467 Z" id="Logo"></path>
        </g>
    </g>
</svg>