<?xml version="1.0" encoding="UTF-8"?>
<svg width="52px" height="40px" viewBox="0 0 52 40" version="1.1" xmlns="http://www.w3.org/2000/svg" xmlns:xlink="http://www.w3.org/1999/xlink">
    <title>LogoIcon</title>
    <g id="Page-1" stroke="none" stroke-width="1" fill="none" fill-rule="evenodd">
        <g id="Artboard" transform="translate(-27.000000, -172.000000)" fill="#222222">
            <path d="M44.4078998,194.8674 C45.5553998,194.7061 47.7792998,195.0367 48.7447998,195.5169 C48.9307998,195.5956 49.3699998,195.82 49.7181998,195.9931 C50.4897998,196.3631 51.9301998,197.6502 52.4643998,198.4177 C52.6779998,198.709 53.0103998,199.2797 53.2121998,199.6654 C53.5168998,200.2597 53.6237998,200.366 53.8650998,200.2873 C55.0640998,199.9448 55.5151998,199.9173 56.3026998,200.1298 C56.7299998,200.2479 57.1296998,200.3542 57.1691998,200.3542 C57.2206998,200.3542 57.3947998,200.0354 57.5807998,199.6497 C58.5145998,197.662 60.4891998,195.9774 62.8079998,195.2217 C63.7140998,194.9265 64.1018998,194.8753 65.4076998,194.8753 C66.7688998,194.8753 67.0616998,194.9265 68.0351998,195.2729 C70.1125998,196.0286 71.7151998,197.2881 72.7399998,199.0238 C73.7252998,200.6691 73.8716998,201.2122 73.8716998,203.4675 C73.8598998,205.3765 73.8479998,205.4946 73.4601998,206.4628 C72.4590998,208.9307 70.6625998,210.6664 68.0746998,211.6347 C67.3030998,211.9141 67.0102998,211.9535 65.2770998,211.9535 C63.4647998,211.9417 63.2906998,211.9141 62.4122998,211.556 C59.2387998,210.2571 57.3868998,208.0018 56.8130998,204.7152 C56.5716998,203.377 56.5083998,203.2274 55.9069998,202.9244 C55.0798998,202.4875 54.0787998,203.1487 54.0787998,204.117 C54.0787998,205.7504 53.0262998,208.0293 51.6254998,209.4345 C50.6005998,210.4696 49.9199998,210.9065 48.4400998,211.5284 C47.6130998,211.863 47.2529998,211.9299 45.8798998,211.981 C44.0121998,212.0637 43.0941998,211.8905 41.6142998,211.1742 C39.2439998,210.0091 37.5107998,207.7656 36.9370798,205.0616 C36.8975098,204.916 36.8421198,204.4004 36.7906798,203.9084 C36.6996598,202.9008 36.9252098,203.0188 34.6182798,202.7158 C31.8167198,202.3419 30.4713398,202.6213 29.8857098,203.6958 C29.6166298,204.1996 29.6166298,204.2114 30.0044098,205.1403 C30.1349898,205.4316 27.9111558,206.9154 27.6974778,206.6635 C26.9377334,205.7622 26.7636298,203.6801 27.3492658,202.515 C27.7884928,201.6531 28.8014898,200.7006 29.7867798,200.2479 C30.5069598,199.9016 30.6533598,199.8897 32.6793498,199.8897 C34.2384098,199.8897 35.1445598,199.9567 36.0507098,200.1417 C36.7273598,200.2755 37.3010998,200.3699 37.3287998,200.3424 C37.3446998,200.3148 37.5820998,199.8779 37.8629998,199.3741 C38.7532998,197.7289 39.9958998,196.5481 41.7408998,195.6743 C42.3937998,195.3594 43.6362998,194.9737 44.4078998,194.8674 Z M46.5525998,197.7171 C45.5672998,197.5321 45.1557998,197.5439 44.1150998,197.7722 C41.7922998,198.276 40.0076998,200.2125 39.6475998,202.5977 C39.2083998,205.5812 40.9929998,208.2852 43.9528998,209.1078 C45.1517998,209.4384 45.6068998,209.4384 46.8057998,209.1196 C47.9137998,208.8401 48.4835998,208.5646 49.1918998,207.9664 C52.3772998,205.2623 51.8865998,200.2243 48.2461998,198.3272 C47.7515998,198.0753 46.9798998,197.7958 46.5525998,197.7171 Z M66.6145998,197.7564 C65.5501998,197.5321 65.0554998,197.5321 64.0029998,197.7761 C60.3624998,198.5712 58.3919998,202.7591 60.0973998,206.0613 C61.2686998,208.3442 63.9356998,209.7218 66.2544998,209.2573 C68.0905998,208.8834 69.8790998,207.6121 70.5715998,206.1794 C71.7982998,203.6565 71.2798998,200.9288 69.2538998,199.1104 C68.3754998,198.3114 67.7462998,197.9965 66.6145998,197.7564 Z M62.4287921,172.000739 C63.811931,172.00546 64.8694998,172.032907 64.8694998,172.086043 C64.8694998,172.130125 64.5276758,172.511755 64.0505686,172.995153 L63.8016976,173.244242 L63.6705998,173.3731 C63.0176998,174.02254 62.4715998,174.59325 62.4715998,174.63261 C62.4715998,174.67197 64.2601998,174.69953 66.4443998,174.71133 C70.7496998,174.71133 72.0039998,174.83334 75.0033998,175.5615 C76.4674998,175.90786 78.3351998,176.59666 78.3351998,176.76985 C78.3351998,176.86431 76.6692998,177.92309 73.8954998,179.60768 C72.2295998,180.61529 72.0158998,180.85538 72.8032998,180.86719 C73.1633998,180.86719 74.7501998,181.23717 75.8026998,181.55599 C76.8275998,181.8748 78.9999998,182.8549 78.9999998,183.0005 C78.9999998,183.091 77.3736998,184.0081 74.6393998,185.4526 C73.9587998,185.8108 73.4007998,186.1414 73.4007998,186.1965 C73.4007998,186.2516 73.7450998,186.5271 74.1724998,186.8066 C75.2131998,187.5111 76.1469998,188.5423 76.5584998,189.4319 C76.7444998,189.8294 76.8631998,190.1994 76.8235998,190.2387 C76.7840998,190.2663 76.3725998,190.3608 75.9055998,190.4119 C75.2609817,190.5035 74.7712329,190.575847 74.4051566,190.634615 L74.1533004,190.676234 C73.6940155,190.754734 73.4954453,190.805873 73.4522998,190.8488 C73.4007998,190.8882 73.6144998,191.4156 73.9191998,192.0139 C74.2278998,192.6239 74.4256998,193.1553 74.3742998,193.1946 C74.2555998,193.3009 70.4844998,193.6473 69.3369998,193.6591 L68.5376998,193.6591 L67.3782998,191.3369 C67.0031798,190.57172 66.6608198,189.864644 66.446951,189.404413 L66.3511674,189.195741 C66.2669778,189.009388 66.2188998,188.89261 66.2188998,188.869 C66.2030998,188.7785 66.0961998,188.684 65.9774998,188.6447 C65.8429998,188.6053 64.9644998,188.3377 64.0029998,188.0346 C59.2703998,186.5389 55.1788998,185.9013 50.3393998,185.9013 C46.5960998,185.9013 43.2365998,186.2831 40.6763998,187.027 C40.3163998,187.1333 39.7583998,187.2789 39.4378998,187.3576 C38.8126998,187.515 38.8007998,187.5426 37.9064998,189.8097 C36.9845598,192.1556 34.2542298,197.9257 34.0128498,198.0044 C33.9455798,198.0162 33.4390798,198.0162 32.8930198,197.9769 C32.1609698,197.9099 31.8958498,197.843 31.8681498,197.6974 C31.8474865,197.557456 31.8268229,197.421933 31.8054806,197.28754 L31.7616901,197.019281 C31.7165927,196.750575 31.6669712,196.477601 31.6073981,196.174007 L31.5443069,195.859232 C31.3884157,195.096387 31.1684935,194.119022 30.8155898,192.5924 C30.1231198,189.5696 29.2683998,187.0624 28.6036298,186.1493 L28.3226798,185.7517 L28.8291698,185.1968 L29.3475498,184.6418 L28.3741198,184.6024 C27.8517968,184.5749 27.4125718,184.5355 27.4125718,184.4962 C27.4125718,184.3112 28.2000098,182.9178 28.8252198,181.97713 C29.8896498,180.387 31.1163198,179.03303 32.3429898,178.06478 C33.3441098,177.28152 34.7963298,176.35263 35.0495798,176.35263 C35.1049798,176.35263 35.1445498,176.62028 35.1445498,176.9509 C35.1445498,177.29727 35.2118198,177.54917 35.2909598,177.54917 C35.3700998,177.54917 35.7460198,177.29726 36.1179798,176.97845 C38.5831998,174.90813 41.7566998,173.17237 43.0347998,173.17237 C43.3790998,173.17237 43.4067998,173.19992 43.3275998,173.53054 C43.2761998,173.74309 43.0624998,174.28625 42.8487998,174.75069 C42.6351998,175.2112 42.5005998,175.62448 42.5282998,175.66384 C42.5678998,175.69139 42.9397998,175.53395 43.3671998,175.29386 C46.2715998,173.71947 51.5264998,172.459957 56.6033998,172.113591 C57.3113271,172.064928 58.5974362,172.030839 59.947621,172.013404 L60.4559398,172.007651 C60.7954825,172.004341 61.1350135,172.002088 61.4664998,172.000926 Z" id="LogoIcon"></path>
        </g>
    </g>
</svg>