<?xml version="1.0" encoding="UTF-8"?>
<svg width="217px" height="40px" viewBox="0 0 217 40" version="1.1" xmlns="http://www.w3.org/2000/svg" xmlns:xlink="http://www.w3.org/1999/xlink">
    <title>logo</title>
    <g id="Page-1" stroke="none" stroke-width="1" fill="none" fill-rule="evenodd">
        <path d="M17.4078998,22.8674 C18.5553998,22.7061 20.7792998,23.0367 21.7447998,23.5169 C21.9307998,23.5956 22.3699998,23.82 22.7181998,23.9931 C23.4897998,24.3631 24.9301998,25.6502 25.4643998,26.4177 C25.6779998,26.709 26.0103998,27.2797 26.2121998,27.6654 C26.5168998,28.2597 26.6237998,28.366 26.8650998,28.2873 C28.0640998,27.9448 28.5151998,27.9173 29.3026998,28.1298 C29.7299998,28.2479 30.1296998,28.3542 30.1691998,28.3542 C30.2206998,28.3542 30.3947998,28.0354 30.5807998,27.6497 C31.5145998,25.662 33.4891998,23.9774 35.8079998,23.2217 C36.7140998,22.9265 37.1018998,22.8753 38.4076998,22.8753 C39.7688998,22.8753 40.0616998,22.9265 41.0351998,23.2729 C43.1125998,24.0286 44.7151998,25.2881 45.7399998,27.0238 C46.7252998,28.6691 46.8716998,29.2122 46.8716998,31.4675 C46.8598998,33.3765 46.8479998,33.4946 46.4601998,34.4628 C45.4590998,36.9307 43.6625998,38.6664 41.0746998,39.6347 C40.3030998,39.9141 40.0102998,39.9535 38.2770998,39.9535 C36.4647998,39.9417 36.2906998,39.9141 35.4122998,39.556 C32.2387998,38.2571 30.3868998,36.0018 29.8130998,32.7152 C29.5716998,31.377 29.5083998,31.2274 28.9069998,30.9244 C28.0798998,30.4875 27.0787998,31.1487 27.0787998,32.117 C27.0787998,33.7504 26.0262998,36.0293 24.6254998,37.4345 C23.6005998,38.4696 22.9199998,38.9065 21.4400998,39.5284 C20.6130998,39.863 20.2529998,39.9299 18.8798998,39.981 C17.0121998,40.0637 16.0941998,39.8905 14.6142998,39.1742 C12.2439998,38.0091 10.5107998,35.7656 9.9370798,33.0616 C9.8975098,32.916 9.8421198,32.4004 9.7906798,31.9084 C9.6996598,30.9008 9.9252098,31.0188 7.6182798,30.7158 C4.8167198,30.3419 3.4713398,30.6213 2.8857098,31.6958 C2.6166298,32.1996 2.6166298,32.2114 3.0044098,33.1403 C3.1349898,33.4316 0.9111558,34.9154 0.6974778,34.6635 C-0.0622666,33.7622 -0.2363702,31.6801 0.3492658,30.515 C0.7884928,29.6531 1.8014898,28.7006 2.7867798,28.2479 C3.5069598,27.9016 3.6533598,27.8897 5.6793498,27.8897 C7.2384098,27.8897 8.1445598,27.9567 9.0507098,28.1417 C9.7273598,28.2755 10.3010998,28.3699 10.3287998,28.3424 C10.3446998,28.3148 10.5820998,27.8779 10.8629998,27.3741 C11.7532998,25.7289 12.9958998,24.5481 14.7408998,23.6743 C15.3937998,23.3594 16.6362998,22.9737 17.4078998,22.8674 Z M19.5525998,25.7171 C18.5672998,25.5321 18.1557998,25.5439 17.1150998,25.7722 C14.7922998,26.276 13.0076998,28.2125 12.6475998,30.5977 C12.2083998,33.5812 13.9929998,36.2852 16.9528998,37.1078 C18.1517998,37.4384 18.6068998,37.4384 19.8057998,37.1196 C20.9137998,36.8401 21.4835998,36.5646 22.1918998,35.9664 C25.3772998,33.2623 24.8865998,28.2243 21.2461998,26.3272 C20.7515998,26.0753 19.9798998,25.7958 19.5525998,25.7171 Z M39.6145998,25.7564 C38.5501998,25.5321 38.0554998,25.5321 37.0029998,25.7761 C33.3624998,26.5712 31.3919998,30.7591 33.0973998,34.0613 C34.2686998,36.3442 36.9356998,37.7218 39.2544998,37.2573 C41.0905998,36.8834 42.8790998,35.6121 43.5715998,34.1794 C44.7982998,31.6565 44.2798998,28.9288 42.2538998,27.1104 C41.3754998,26.3114 40.7462998,25.9965 39.6145998,25.7564 Z M35.4287921,0.000739 C36.811931,0.00546 37.8694998,0.032907 37.8694998,0.086043 C37.8694998,0.130125 37.5276758,0.511755 37.0505686,0.995153 L36.8016976,1.244242 L36.6705998,1.3731 C36.0176998,2.02254 35.4715998,2.59325 35.4715998,2.63261 C35.4715998,2.67197 37.2601998,2.69953 39.4443998,2.71133 C43.7496998,2.71133 45.0039998,2.83334 48.0033998,3.5615 C49.4674998,3.90786 51.3351998,4.59666 51.3351998,4.76985 C51.3351998,4.86431 49.6692998,5.92309 46.8954998,7.60768 C45.2295998,8.61529 45.0158998,8.85538 45.8032998,8.86719 C46.1633998,8.86719 47.7501998,9.23717 48.8026998,9.55599 C49.8275998,9.8748 51.9999998,10.8549 51.9999998,11.0005 C51.9999998,11.091 50.3736998,12.0081 47.6393998,13.4526 C46.9587998,13.8108 46.4007998,14.1414 46.4007998,14.1965 C46.4007998,14.2516 46.7450998,14.5271 47.1724998,14.8066 C48.2131998,15.5111 49.1469998,16.5423 49.5584998,17.4319 C49.7444998,17.8294 49.8631998,18.1994 49.8235998,18.2387 C49.7840998,18.2663 49.3725998,18.3608 48.9055998,18.4119 C48.2609817,18.5035 47.7712329,18.575847 47.4051566,18.634615 L47.1533004,18.676234 C46.6940155,18.754734 46.4954453,18.805873 46.4522998,18.8488 C46.4007998,18.8882 46.6144998,19.4156 46.9191998,20.0139 C47.2278998,20.6239 47.4256998,21.1553 47.3742998,21.1946 C47.2555998,21.3009 43.4844998,21.6473 42.3369998,21.6591 L41.5376998,21.6591 L40.3782998,19.3369 C40.0031798,18.57172 39.6608198,17.864644 39.446951,17.404413 L39.3511674,17.195741 C39.2669778,17.009388 39.2188998,16.89261 39.2188998,16.869 C39.2030998,16.7785 39.0961998,16.684 38.9774998,16.6447 C38.8429998,16.6053 37.9644998,16.3377 37.0029998,16.0346 C32.2703998,14.5389 28.1788998,13.9013 23.3393998,13.9013 C19.5960998,13.9013 16.2365998,14.2831 13.6763998,15.027 C13.3163998,15.1333 12.7583998,15.2789 12.4378998,15.3576 C11.8126998,15.515 11.8007998,15.5426 10.9064998,17.8097 C9.9845598,20.1556 7.2542298,25.9257 7.0128498,26.0044 C6.9455798,26.0162 6.4390798,26.0162 5.8930198,25.9769 C5.1609698,25.9099 4.8958498,25.843 4.8681498,25.6974 C4.8474865,25.557456 4.8268229,25.421933 4.8054806,25.28754 L4.7616901,25.019281 C4.7165927,24.750575 4.6669712,24.477601 4.6073981,24.174007 L4.5443069,23.859232 C4.3884157,23.096387 4.1684935,22.119022 3.8155898,20.5924 C3.1231198,17.5696 2.2683998,15.0624 1.6036298,14.1493 L1.3226798,13.7517 L1.8291698,13.1968 L2.3475498,12.6418 L1.3741198,12.6024 C0.8517968,12.5749 0.4125718,12.5355 0.4125718,12.4962 C0.4125718,12.3112 1.2000098,10.9178 1.8252198,9.97713 C2.8896498,8.387 4.1163198,7.03303 5.3429898,6.06478 C6.3441098,5.28152 7.7963298,4.35263 8.0495798,4.35263 C8.1049798,4.35263 8.1445498,4.62028 8.1445498,4.9509 C8.1445498,5.29727 8.2118198,5.54917 8.2909598,5.54917 C8.3700998,5.54917 8.7460198,5.29726 9.1179798,4.97845 C11.5831998,2.90813 14.7566998,1.17237 16.0347998,1.17237 C16.3790998,1.17237 16.4067998,1.19992 16.3275998,1.53054 C16.2761998,1.74309 16.0624998,2.28625 15.8487998,2.75069 C15.6351998,3.2112 15.5005998,3.62448 15.5282998,3.66384 C15.5678998,3.69139 15.9397998,3.53395 16.3671998,3.29386 C19.2715998,1.71947 24.5264998,0.459957 29.6033998,0.113591 C30.3113271,0.064928 31.5974362,0.030839 32.947621,0.013404 L33.4559398,0.007651 C33.7954825,0.004341 34.1350135,0.002088 34.4664998,0.000739 L35.4287921,0.000739 Z M75.6088867,23.2939453 L73.7939453,23.2939453 L73.7939453,30 L71.8251953,30 L71.8251953,15.0703125 L73.7939453,15.0703125 L73.7939453,21.6533203 L75.3320312,21.6533203 L80.5512695,15.0703125 L83.0019531,15.0703125 L77.3007812,22.3095703 L83.4223633,30 L81.0126953,30 L75.6088867,23.2939453 Z M94.0249023,18.9052734 L94.0249023,30 L92.1176758,30 L92.1176758,20.4741211 L88.3442383,20.4741211 L88.1186523,24.6269531 C87.9956055,26.5341797 87.6760254,27.8979492 87.1599121,28.7182617 C86.6437988,29.5385742 85.8251953,29.9658203 84.7041016,30 L83.9453125,30 L83.9453125,28.3286133 L84.4887695,28.2875977 C85.1040039,28.2192383 85.5449219,27.8637695 85.8115234,27.2211914 C86.078125,26.5786133 86.2490234,25.3891602 86.3242188,23.652832 L86.5292969,18.9052734 L94.0249023,18.9052734 Z M100.700195,27.2211914 L103.28418,18.9052734 L105.314453,18.9052734 L100.854004,31.7124023 C100.163574,33.5581055 99.0664062,34.480957 97.5625,34.480957 L97.2036133,34.4501953 L96.4960938,34.3168945 L96.4960938,32.7788086 L97.0087891,32.8198242 C97.6513672,32.8198242 98.1520996,32.6899414 98.5109863,32.4301758 C98.869873,32.1704102 99.1655273,31.6953125 99.3979492,31.0048828 L99.8183594,29.8769531 L95.8603516,18.9052734 L97.9316406,18.9052734 L100.700195,27.2211914 Z M111.876953,19.5410156 C113.271484,19.5410156 114.387451,20.0075684 115.224854,20.9406738 C116.062256,21.8737793 116.480957,23.1025391 116.480957,24.6269531 L116.480957,24.8012695 C116.480957,25.847168 116.279297,26.7819824 115.875977,27.6057129 C115.472656,28.4294434 114.893311,29.0686035 114.137939,29.5231934 C113.382568,29.9777832 112.512695,30.2050781 111.52832,30.2050781 C110.038086,30.2050781 108.838379,29.7077637 107.929199,28.7131348 C107.02002,27.7185059 106.56543,26.3837891 106.56543,24.7089844 L106.56543,23.7861328 C106.56543,21.4550781 106.997803,19.6025391 107.862549,18.2285156 C108.727295,16.8544922 110.003906,16.0170898 111.692383,15.7163086 C112.649414,15.5454102 113.29541,15.3369141 113.630371,15.0908203 C113.965332,14.8447266 114.132812,14.5063477 114.132812,14.0756836 L115.691406,14.0756836 C115.691406,14.9301758 115.498291,15.5966797 115.112061,16.0751953 C114.72583,16.5537109 114.108887,16.8920898 113.26123,17.090332 L111.846191,17.4082031 C110.718262,17.6748047 109.872314,18.1242676 109.30835,18.7565918 C108.744385,19.388916 108.376953,20.2314453 108.206055,21.2841797 C109.210938,20.1220703 110.43457,19.5410156 111.876953,19.5410156 Z M111.507812,21.0996094 C110.578125,21.0996094 109.839844,21.4123535 109.292969,22.0378418 C108.746094,22.6633301 108.472656,23.5297852 108.472656,24.637207 L108.472656,24.8012695 C108.472656,25.9907227 108.747803,26.932373 109.298096,27.6262207 C109.848389,28.3200684 110.591797,28.6669922 111.52832,28.6669922 C112.47168,28.6669922 113.216797,28.3183594 113.763672,27.6210938 C114.310547,26.9238281 114.583984,25.9052734 114.583984,24.5654297 C114.583984,23.5195312 114.308838,22.6804199 113.758545,22.0480957 C113.208252,21.4157715 112.458008,21.0996094 111.507812,21.0996094 Z M128.416504,30.2050781 C126.912598,30.2050781 125.688965,29.7111816 124.745605,28.7233887 C123.802246,27.7355957 123.330566,26.4145508 123.330566,24.7602539 L123.330566,24.4116211 C123.330566,23.3110352 123.540771,22.3283691 123.961182,21.463623 C124.381592,20.598877 124.969482,19.9221191 125.724854,19.4333496 C126.480225,18.9445801 127.298828,18.7001953 128.180664,18.7001953 C129.623047,18.7001953 130.744141,19.175293 131.543945,20.1254883 C132.34375,21.0756836 132.743652,22.4360352 132.743652,24.206543 L132.743652,24.9960938 L125.227539,24.9960938 C125.254883,26.0898438 125.574463,26.9733887 126.186279,27.6467285 C126.798096,28.3200684 127.575684,28.6567383 128.519043,28.6567383 C129.188965,28.6567383 129.756348,28.5200195 130.221191,28.246582 C130.686035,27.9731445 131.092773,27.6108398 131.441406,27.159668 L132.600098,28.0620117 C131.67041,29.4907227 130.275879,30.2050781 128.416504,30.2050781 Z M128.180664,20.2587891 C127.415039,20.2587891 126.772461,20.5373535 126.25293,21.0944824 C125.733398,21.6516113 125.412109,22.4326172 125.289062,23.4375 L130.84668,23.4375 L130.84668,23.2939453 C130.791992,22.3300781 130.532227,21.583252 130.067383,21.0534668 C129.602539,20.5236816 128.973633,20.2587891 128.180664,20.2587891 Z M138.393555,25.2729492 L137.009277,25.2729492 L137.009277,30 L135.102051,30 L135.102051,18.9052734 L137.009277,18.9052734 L137.009277,23.6015625 L138.25,23.6015625 L141.982422,18.9052734 L144.279297,18.9052734 L139.890625,24.2373047 L144.648438,30 L142.23877,30 L138.393555,25.2729492 Z M150.729004,28.6567383 C151.405762,28.6567383 151.99707,28.4516602 152.50293,28.0415039 C153.008789,27.6313477 153.289062,27.1186523 153.34375,26.503418 L155.138184,26.503418 C155.104004,27.1391602 154.885254,27.7441406 154.481934,28.3183594 C154.078613,28.8925781 153.540283,29.3505859 152.866943,29.6923828 C152.193604,30.0341797 151.480957,30.2050781 150.729004,30.2050781 C149.218262,30.2050781 148.016846,29.7009277 147.124756,28.692627 C146.232666,27.6843262 145.786621,26.3051758 145.786621,24.5551758 L145.786621,24.2373047 C145.786621,23.1572266 145.984863,22.1967773 146.381348,21.355957 C146.777832,20.5151367 147.346924,19.8623047 148.088623,19.3974609 C148.830322,18.9326172 149.707031,18.7001953 150.71875,18.7001953 C151.962891,18.7001953 152.996826,19.0727539 153.820557,19.8178711 C154.644287,20.5629883 155.083496,21.5302734 155.138184,22.7197266 L153.34375,22.7197266 C153.289062,22.0019531 153.017334,21.4123535 152.528564,20.9509277 C152.039795,20.489502 151.436523,20.2587891 150.71875,20.2587891 C149.754883,20.2587891 149.008057,20.6057129 148.478271,21.2995605 C147.948486,21.9934082 147.683594,22.996582 147.683594,24.309082 L147.683594,24.6679688 C147.683594,25.9462891 147.946777,26.9306641 148.473145,27.6210938 C148.999512,28.3115234 149.751465,28.6567383 150.729004,28.6567383 Z M166.345703,30 L164.44873,30 L164.44873,20.4741211 L159.342285,20.4741211 L159.342285,30 L157.435059,30 L157.435059,18.9052734 L166.345703,18.9052734 L166.345703,30 Z M173.995117,30.2050781 C172.491211,30.2050781 171.267578,29.7111816 170.324219,28.7233887 C169.380859,27.7355957 168.90918,26.4145508 168.90918,24.7602539 L168.90918,24.4116211 C168.90918,23.3110352 169.119385,22.3283691 169.539795,21.463623 C169.960205,20.598877 170.548096,19.9221191 171.303467,19.4333496 C172.058838,18.9445801 172.877441,18.7001953 173.759277,18.7001953 C175.20166,18.7001953 176.322754,19.175293 177.122559,20.1254883 C177.922363,21.0756836 178.322266,22.4360352 178.322266,24.206543 L178.322266,24.9960938 L170.806152,24.9960938 C170.833496,26.0898438 171.153076,26.9733887 171.764893,27.6467285 C172.376709,28.3200684 173.154297,28.6567383 174.097656,28.6567383 C174.767578,28.6567383 175.334961,28.5200195 175.799805,28.246582 C176.264648,27.9731445 176.671387,27.6108398 177.02002,27.159668 L178.178711,28.0620117 C177.249023,29.4907227 175.854492,30.2050781 173.995117,30.2050781 Z M173.759277,20.2587891 C172.993652,20.2587891 172.351074,20.5373535 171.831543,21.0944824 C171.312012,21.6516113 170.990723,22.4326172 170.867676,23.4375 L176.425293,23.4375 L176.425293,23.2939453 C176.370605,22.3300781 176.11084,21.583252 175.645996,21.0534668 C175.181152,20.5236816 174.552246,20.2587891 173.759277,20.2587891 Z M189.888672,24.5756836 C189.888672,26.2641602 189.502441,27.6245117 188.72998,28.6567383 C187.95752,29.6889648 186.911621,30.2050781 185.592285,30.2050781 C184.245605,30.2050781 183.186035,29.777832 182.413574,28.9233398 L182.413574,34.265625 L180.516602,34.265625 L180.516602,18.9052734 L182.249512,18.9052734 L182.341797,20.1357422 C183.114258,19.1787109 184.1875,18.7001953 185.561523,18.7001953 C186.894531,18.7001953 187.948975,19.2026367 188.724854,20.2075195 C189.500732,21.2124023 189.888672,22.6103516 189.888672,24.4013672 L189.888672,24.5756836 Z M187.991699,24.3603516 C187.991699,23.109375 187.725098,22.121582 187.191895,21.3969727 C186.658691,20.6723633 185.927246,20.3100586 184.997559,20.3100586 C183.849121,20.3100586 182.987793,20.8193359 182.413574,21.8378906 L182.413574,27.1391602 C182.980957,28.1508789 183.849121,28.6567383 185.018066,28.6567383 C185.927246,28.6567383 186.650146,28.2961426 187.186768,27.5749512 C187.723389,26.8537598 187.991699,25.7822266 187.991699,24.3603516 Z M200.54248,20.4433594 L196.820312,20.4433594 L196.820312,30 L194.92334,30 L194.92334,20.4433594 L191.272949,20.4433594 L191.272949,18.9052734 L200.54248,18.9052734 L200.54248,20.4433594 Z M204.449219,30 L202.552246,30 L202.552246,18.9052734 L204.449219,18.9052734 L204.449219,30 Z M202.398438,15.9624023 C202.398438,15.6547852 202.492432,15.3950195 202.68042,15.1831055 C202.868408,14.9711914 203.146973,14.8652344 203.516113,14.8652344 C203.885254,14.8652344 204.165527,14.9711914 204.356934,15.1831055 C204.54834,15.3950195 204.644043,15.6547852 204.644043,15.9624023 C204.644043,16.2700195 204.54834,16.5263672 204.356934,16.7314453 C204.165527,16.9365234 203.885254,17.0390625 203.516113,17.0390625 C203.146973,17.0390625 202.868408,16.9365234 202.68042,16.7314453 C202.492432,16.5263672 202.398438,16.2700195 202.398438,15.9624023 Z M207.658691,30 L207.658691,18.9052734 L211.98584,18.9052734 C213.462402,18.9052734 214.595459,19.1633301 215.38501,19.6794434 C216.174561,20.1955566 216.569336,20.9526367 216.569336,21.9506836 C216.569336,22.4633789 216.415527,22.9265137 216.10791,23.3400879 C215.800293,23.7536621 215.345703,24.0698242 214.744141,24.2885742 C215.414062,24.4458008 215.952393,24.753418 216.359131,25.2114258 C216.765869,25.6694336 216.969238,26.2163086 216.969238,26.8520508 C216.969238,27.8706055 216.594971,28.6499023 215.846436,29.1899414 C215.0979,29.7299805 214.040039,30 212.672852,30 L207.658691,30 Z M209.555664,25.1293945 L209.555664,28.472168 L212.693359,28.472168 C213.486328,28.472168 214.079346,28.3251953 214.472412,28.03125 C214.865479,27.7373047 215.062012,27.3237305 215.062012,26.7905273 C215.062012,25.6831055 214.248535,25.1293945 212.621582,25.1293945 L209.555664,25.1293945 Z M209.555664,23.6118164 L212.006348,23.6118164 C213.783691,23.6118164 214.672363,23.0922852 214.672363,22.0532227 C214.672363,21.0141602 213.831543,20.4775391 212.149902,20.4433594 L209.555664,20.4433594 L209.555664,23.6118164 Z" id="logo" fill="#222222" fill-rule="nonzero"></path>
    </g>
</svg>