<?xml version="1.0" encoding="UTF-8"?>
<svg width="8px" height="6px" viewBox="0 0 8 6" version="1.1" xmlns="http://www.w3.org/2000/svg" xmlns:xlink="http://www.w3.org/1999/xlink">
    <title>iconMarkClose</title>
    <g id="Page-1" stroke="none" stroke-width="1" fill="none" fill-rule="evenodd">
        <g id="Artboard" transform="translate(-123.000000, -43.000000)" fill="#222222" fill-rule="nonzero">
            <path d="M128.177998,49 L127.000218,48.10373 C127.689108,47.04979 128.044658,45.91286 128.066888,44.69295 L128.066888,43 L130.111328,43 L130.111328,44.44398 C130.111328,45.29046 129.933548,46.12863 129.577998,46.95851 C129.215028,47.78838 128.748368,48.46888 128.177998,49 Z M124.677998,49 L123.500217,48.10373 C124.189108,47.04979 124.544658,45.91286 124.566888,44.69295 L124.566888,43 L126.611328,43 L126.611328,44.44398 C126.611328,45.29046 126.433548,46.12863 126.077998,46.95851 C125.715028,47.78838 125.248368,48.46888 124.677998,49 Z" id="iconMarkClose"></path>
        </g>
    </g>
</svg>