<?xml version="1.0" encoding="UTF-8"?>
<svg width="16px" height="19px" viewBox="0 0 16 19" version="1.1" xmlns="http://www.w3.org/2000/svg" xmlns:xlink="http://www.w3.org/1999/xlink">
    <title>iconTrash</title>
    <g id="Page-1" stroke="none" stroke-width="1" fill="none" fill-rule="evenodd">
        <g id="Artboard" transform="translate(-159.000000, -22.000000)" fill="#017AFF" fill-rule="nonzero">
            <path d="M169.018573,22.000002 C169.136644,21.9997092 169.252502,22.0324746 169.353159,22.0944612 C169.453665,22.156599 169.534842,22.2454455 169.587678,22.3511205 L170.529152,24.2427596 L174.36536,24.242756 C174.592062,24.242756 174.80164,24.3636386 174.914988,24.560072 C175.028337,24.7565053 175.028337,24.9984217 174.914988,25.1948626 C174.80164,25.3913035 174.592058,25.5121786 174.36536,25.5121786 L173.46182,25.5121786 L173.46182,37.7035895 C173.46182,38.3770698 173.194355,39.022893 172.718101,39.4990332 C172.241961,39.9751697 171.596251,40.2426009 170.922809,40.2426009 L163.077188,40.2426009 C162.403707,40.2426009 161.758035,39.9751734 161.281895,39.4990332 C160.805608,39.022893 160.538176,38.377032 160.538176,37.7035895 L160.538029,25.5121786 L159.63464,25.5121786 C159.407938,25.5121786 159.19836,25.3912959 159.085012,25.1948626 C158.971663,24.9984293 158.971663,24.7565129 159.085012,24.560072 C159.19836,24.3636311 159.407942,24.242756 159.63464,24.242756 L163.468471,24.2426084 L164.410097,22.3511205 C164.462785,22.2454455 164.544105,22.1565952 164.644615,22.0944612 C164.745125,22.0324734 164.86113,21.9997087 164.979202,22.000002 Z M172.19222,25.5121897 L161.807587,25.5121897 L161.807587,37.7036006 C161.807587,38.0403974 161.941452,38.3631881 162.179515,38.601398 C162.417585,38.8394568 162.740508,38.9731743 163.077161,38.9731743 L170.922782,38.9731743 C171.259428,38.9731743 171.582366,38.8394606 171.820428,38.601398 C172.058491,38.3631768 172.192356,38.0404012 172.192356,37.7036006 L172.19222,25.5121897 Z M166.682535,26.8077316 C166.878817,26.6942355 167.120881,26.6942355 167.317174,26.8077316 C167.513615,26.9210803 167.634638,27.1306621 167.634638,27.3573596 L167.634638,37.1537119 C167.634638,37.3221141 167.567777,37.4835794 167.448674,37.6025351 C167.329714,37.7216419 167.168249,37.7884988 166.999851,37.7884988 C166.831456,37.7884988 166.669991,37.7216381 166.551035,37.6025351 C166.431928,37.4835756 166.365071,37.3221103 166.365071,37.1537119 L166.365071,27.3573596 C166.365071,27.1306583 166.486094,26.9210803 166.682535,26.8077316 Z M169.38439,26.8077316 C169.580673,26.6942355 169.822736,26.6942355 170.01903,26.8077316 C170.215471,26.9210803 170.336493,27.1306621 170.336493,27.3573596 L170.336493,37.1537119 C170.336493,37.3221141 170.269633,37.4835794 170.15053,37.6025351 C170.03157,37.7216419 169.870105,37.7884988 169.701706,37.7884988 C169.533312,37.7884988 169.371994,37.7216381 169.252891,37.6025351 C169.133784,37.4835756 169.066927,37.3221103 169.066927,37.1537119 L169.066927,27.3573596 C169.066927,27.1306583 169.18795,26.9210803 169.38439,26.8077316 Z M163.980679,26.8077316 C164.176961,26.6942355 164.419025,26.6942355 164.615318,26.8077316 C164.811759,26.9210803 164.932782,27.1306621 164.932782,27.3573596 L164.932782,37.1537119 C164.932782,37.3221141 164.865921,37.4835794 164.746818,37.6025351 C164.627711,37.7216419 164.466393,37.7884988 164.297995,37.7884988 C164.1296,37.7884988 163.968135,37.7216381 163.849179,37.6025351 C163.730072,37.4835756 163.663216,37.3221103 163.663216,37.1537119 L163.663216,27.3573596 C163.663216,27.1306583 163.784238,26.9210803 163.980679,26.8077316 Z M168.626972,23.2693963 L165.372919,23.2693963 L164.884121,24.2427596 L169.115807,24.2427596 L168.626972,23.2693963 Z" id="iconTrash"></path>
        </g>
    </g>
</svg>