<?xml version="1.0" encoding="UTF-8"?>
<svg width="7px" height="6px" viewBox="0 0 7 6" version="1.1" xmlns="http://www.w3.org/2000/svg" xmlns:xlink="http://www.w3.org/1999/xlink">
    <title>iconMarkOpen</title>
    <g id="Page-1" stroke="none" stroke-width="1" fill="none" fill-rule="evenodd">
        <g id="Artboard" transform="translate(-108.000000, -31.000000)" fill="#222222" fill-rule="nonzero">
            <path d="M109.933338,31 L111.111108,31.896266 C110.422218,32.95021 110.066668,34.08714 110.044448,35.30705 L110.044448,37 L108,37 L108,35.55602 C108,34.70954 108.177778,33.87137 108.533334,33.04149 C108.896298,32.21162 109.362968,31.53112 109.933338,31 Z M113.433338,31 L114.611108,31.896266 C113.922218,32.95021 113.566668,34.08714 113.544448,35.30705 L113.544448,37 L111.499998,37 L111.499998,35.55602 C111.499998,34.70954 111.677778,33.87137 112.033338,33.04149 C112.396298,32.21162 112.862968,31.53112 113.433338,31 Z" id="iconMarkOpen"></path>
        </g>
    </g>
</svg>