<?xml version="1.0" encoding="UTF-8"?>
<svg width="20px" height="20px" viewBox="0 0 20 20" version="1.1" xmlns="http://www.w3.org/2000/svg" xmlns:xlink="http://www.w3.org/1999/xlink">
    <title>iconEdit</title>
    <g id="Page-1" stroke="none" stroke-width="1" fill="none" fill-rule="evenodd">
        <g id="Artboard" transform="translate(-218.000000, -24.000000)" fill="#017AFF" fill-rule="nonzero">
            <g id="iconEdit" transform="translate(219.000000, 25.000000)">
                <g id="Group">
                    <path d="M9.90597832,2.0447777 L0.933599618,11.1598965 C0.81588881,11.2918614 0.733933022,11.418367 0.607531226,11.6589336 L0.463343685,11.9419473 L0.416750675,12.0694911 L-0.532401868,16.0016945 C-0.734698752,16.6017508 -0.513553776,17.3757583 0.0333630499,17.9226751 C0.396386827,18.2856989 0.945116366,18.5051907 1.40677966,18.5051907 L1.81355932,18.5051907 L1.95434364,18.48844 L5.829,17.553 L5.74576271,17.5560381 C6.19849466,17.5560381 6.39944255,17.4220729 6.84799288,16.9735225 L16.0827752,7.37404553 C17.5541021,5.84458795 17.5069779,3.41197149 15.9775203,1.94064458 C15.9176102,1.88301152 15.8558457,1.82733773 15.7923243,1.7737111 C14.0608532,0.311953015 11.4957782,0.430074881 9.90597832,2.0447777 Z M15.0182226,2.69064437 L15.1455858,2.80544801 C16.1974256,3.81731017 16.2298339,5.49027118 15.2179717,6.54211101 L5.9913271,16.1332912 L5.80505498,16.3171743 L5.76006558,16.3534061 L5.60497839,16.3727888 L1.738,17.305 L1.40677966,17.3051907 C1.25827346,17.3051907 1.01604255,17.2082983 0.881891187,17.0741469 L0.799193456,16.9815301 C0.648049082,16.7914 0.582433204,16.5760577 0.602741253,16.410499 L1.567,12.417 L1.72282716,12.1206567 L1.78294928,12.0204902 L1.83432788,11.9532636 L10.7610748,2.8866863 C11.9108565,1.71889414 13.7659808,1.63346555 15.0182226,2.69064437 Z" id="Path"></path>
                </g>
                <path d="M1.5009923,10.9397409 C4.42256036,11.4042508 6.26457199,13.1694833 6.94940329,16.1402594 L7.01206226,16.431514 L5.83539537,16.6670029 C5.32066012,14.0950264 3.92401294,12.6274368 1.56860445,12.1700047 L1.31256702,12.1248552 L1.5009923,10.9397409 Z" id="Path-3"></path>
            </g>
        </g>
    </g>
</svg>