<?xml version="1.0" encoding="UTF-8"?>
<svg width="20px" height="14px" viewBox="0 0 20 14" version="1.1" xmlns="http://www.w3.org/2000/svg" xmlns:xlink="http://www.w3.org/1999/xlink">
    <title>iconEye</title>
    <g id="Page-1" stroke="none" stroke-width="1" fill="none" fill-rule="evenodd">
        <g id="Artboard" transform="translate(-184.000000, -26.000000)" fill="#017AFF" fill-rule="nonzero">
            <path d="M193.999779,26 C196.01585,26 197.966529,26.7170212 199.502623,28.0229341 L203.172869,31.1299227 C203.699072,31.5738605 204,32.2227879 204,32.9064264 C204,33.5900649 203.699068,34.2391429 203.177296,34.6808492 L199.507051,37.7854028 C197.970602,39.0923782 196.019215,39.8099307 194.001992,39.8099307 C191.984725,39.8099307 190.033383,39.0923782 188.496934,37.7854028 L184.822881,34.6784141 C184.300928,34.2369114 184,33.5878069 184,32.9041684 C184,32.22053 184.300932,31.5714564 184.822881,31.1299227 L188.496934,28.0229341 C190.033073,26.7170212 191.983574,26 193.999779,26 Z M193.997609,27.5509707 C192.347021,27.5509707 190.750581,28.1381356 189.493591,29.207624 L185.823346,32.3121776 C185.649016,32.4595223 185.548536,32.6760587 185.548536,32.9041684 C185.548536,33.1322781 185.649016,33.3488101 185.823346,33.4961592 L189.493591,36.6007128 C190.750891,37.669847 192.347199,38.2568348 193.997609,38.2568348 C195.64802,38.2568348 197.24446,37.669847 198.501627,36.6007128 L202.171873,33.4961592 C202.346202,33.3488146 202.446683,33.1322781 202.446683,32.9041684 C202.446683,32.6760587 202.346202,32.4595267 202.171873,32.3121776 L198.501627,29.207624 C197.244504,28.1381356 195.648197,27.5509707 193.997609,27.5509707 Z M193.997919,29.0299958 C195.025037,29.0311912 196.009652,29.4397096 196.735838,30.1660727 C197.462205,30.8922587 197.870704,31.8768734 197.871915,32.9039913 C197.871915,33.9314635 197.46375,34.9167334 196.73721,35.6432825 C196.01067,36.3698315 195.025391,36.7779869 193.997919,36.7779869 C192.970447,36.7779869 191.985177,36.3698227 191.258628,35.6432825 C190.532079,34.9167423 190.123924,33.9314635 190.123924,32.9039913 C190.123924,31.8765192 190.532088,30.8912492 191.258628,30.1647002 C191.985168,29.4381511 192.970447,29.0299958 193.997919,29.0299958 Z M193.997919,30.579594 C193.381356,30.579594 192.790238,30.8244837 192.354238,31.2603104 C191.918411,31.696323 191.673522,32.2874283 191.673522,32.9039913 C191.673522,33.5205543 191.918411,34.1116729 192.354238,34.5476723 C192.790251,34.983499 193.381356,35.2283886 193.997919,35.2283886 C194.614482,35.2283886 195.205601,34.983499 195.6416,34.5476723 C196.077427,34.1116596 196.322316,33.5205543 196.322316,32.9039913 C196.322316,32.2874283 196.077427,31.6963097 195.6416,31.2603104 C195.205587,30.8244837 194.614482,30.579594 193.997919,30.579594 Z" id="iconEye"></path>
        </g>
    </g>
</svg>