<?xml version="1.0" encoding="UTF-8"?>
<svg width="20px" height="20px" viewBox="0 0 20 20" version="1.1" xmlns="http://www.w3.org/2000/svg" xmlns:xlink="http://www.w3.org/1999/xlink">
    <title>iconLinkedin</title>
    <g id="Page-1" stroke="none" stroke-width="1" fill="none" fill-rule="evenodd">
        <g id="Artboard" transform="translate(-70.000000, -66.000000)" fill="#FFFFFF" fill-rule="nonzero">
            <path d="M88.3925,66 L71.6075,66 C70.72,66 70,66.72 70,67.6075 L70,84.3925 C70,85.28 70.72,86 71.6075,86 L88.3925,86 C89.28,86 90,85.28 90,84.3925 L90,67.6075 C90,66.72 89.28,66 88.3925,66 Z M88.3925,84.4 C77.1975,84.3975 71.6,84.395 71.6,84.3925 C71.6025,73.1975 71.605,67.6 71.6075,67.6 C82.8025,67.6025 88.4,67.605 88.4,67.6075 C88.3975,78.8025 88.395,84.4 88.3925,84.4 Z M72.965,73.4975 L75.9325,73.4975 L75.9325,83.0425 L72.965,83.0425 L72.965,73.4975 Z M74.45,72.1925 C75.3975,72.1925 76.17,71.4225 76.17,70.4725 C76.17,70.24663 76.12551,70.02296 76.03907,69.81428 C75.95264,69.6056 75.82594,69.41599 75.66622,69.25628 C75.50651,69.09656 75.3169,68.96987 75.10822,68.88343 C74.89954,68.79699 74.67587,68.7525 74.45,68.7525 C74.22413,68.7525 74.00046,68.79699 73.79178,68.88343 C73.5831,68.96987 73.39349,69.09656 73.23378,69.25628 C73.07406,69.41599 72.94737,69.6056 72.86093,69.81428 C72.77449,70.02296 72.7299939,70.24663 72.7299939,70.4725 C72.7275,71.4225 73.4975,72.1925 74.45,72.1925 Z M80.7575,78.32 C80.7575,77.075 80.995,75.87 82.5375,75.87 C84.0575,75.87 84.08,77.2925 84.08,78.4 L84.08,83.0425 L87.045,83.0425 L87.045,77.8075 C87.045,75.2375 86.49,73.26 83.4875,73.26 C82.045,73.26 81.0775,74.0525 80.68,74.8025 L80.64,74.8025 L80.64,73.4975 L77.7925,73.4975 L77.7925,83.0425 L80.7575,83.0425 L80.7575,78.32 Z" id="iconLinkedin"></path>
        </g>
    </g>
</svg>