<?xml version="1.0" encoding="UTF-8"?>
<svg width="22px" height="22px" viewBox="0 0 22 22" version="1.1" xmlns="http://www.w3.org/2000/svg" xmlns:xlink="http://www.w3.org/1999/xlink">
    <title>iconUser</title>
    <g id="Page-1" stroke="none" stroke-width="1" fill="none" fill-rule="evenodd">
        <g id="base" transform="translate(-122.000000, -72.000000)" fill="#979797" fill-rule="nonzero">
            <path d="M133,72 C139.075132,72 144,76.9248678 144,83 C144,89.0751322 139.075132,94 133,94 C126.924868,94 122,89.0751322 122,83 C122,76.9248678 126.924868,72 133,72 Z M127.638237,90.5569168 L127.451986,90.7125218 C129.012911,91.8373524 130.929071,92.5 133,92.5 C134.897133,92.5 136.664383,91.9439067 138.147639,90.9858318 C134.970202,87.5130401 131.558429,87.3568336 127.638237,90.5569168 Z M133,73.5 C127.753295,73.5 123.5,77.7532949 123.5,83 C123.5,85.6293833 124.568218,88.0092708 126.294352,89.7293603 C131.017118,85.6725544 135.471307,85.7711764 139.344001,90.0709363 C141.281218,88.3325003 142.5,85.8085811 142.5,83 C142.5,77.7532949 138.246705,73.5 133,73.5 Z M133,77 C135.209139,77 137,78.790861 137,81 C137,83.209139 135.209139,85 133,85 C130.790861,85 129,83.209139 129,81 C129,78.790861 130.790861,77 133,77 Z M133,78.5 C131.619288,78.5 130.5,79.6192881 130.5,81 C130.5,82.3807119 131.619288,83.5 133,83.5 C134.380712,83.5 135.5,82.3807119 135.5,81 C135.5,79.6192881 134.380712,78.5 133,78.5 Z" id="iconUser"></path>
        </g>
    </g>
</svg>