<?xml version="1.0" encoding="UTF-8"?>
<svg width="22px" height="20px" viewBox="0 0 22 20" version="1.1" xmlns="http://www.w3.org/2000/svg" xmlns:xlink="http://www.w3.org/1999/xlink">
    <title>iconTelegram</title>
    <g id="Page-1" stroke="none" stroke-width="1" fill="none" fill-rule="evenodd">
        <g id="Artboard" transform="translate(-58.000000, -11.000000)" fill="#FFFFFF" fill-rule="nonzero">
            <path d="M78.5707767,11.0660386 C79.2570207,10.7931006 79.9650647,11.4091065 79.7896982,12.1265133 L75.3457562,30.3062347 C75.1763916,30.9990883 74.3114825,31.2358615 73.8128356,30.7258794 L69.0069429,25.8108862 L66.3079221,29.4917017 C65.8919239,30.0589715 65.0318909,29.9528984 64.7501935,29.3372557 L64.7106701,29.2358382 L62.604954,22.7748728 L58.4951651,20.6736093 C57.8343431,20.3356891 57.8442233,19.4077173 58.469285,19.0682109 L58.5730832,19.0196667 L78.5707767,11.0660386 Z M77.6050421,13.4059534 L61.107854,19.9670148 L63.7668011,21.3274546 C63.9451165,21.4186386 64.0872918,21.5655782 64.1728291,21.7442602 L64.2171909,21.8550864 L65.8891207,26.9862052 L67.7180007,24.4928564 L67.1469681,23.9084839 C66.8281322,23.5824002 66.8036072,23.0763549 67.0733925,22.7225858 L67.1469703,22.6375082 L71.5909123,18.0925779 C71.9418831,17.7336312 72.5173849,17.7271656 72.8763316,18.0781364 C73.2352782,18.4291073 73.2417439,19.0046091 72.890773,19.3635557 L69.067845,23.2720882 L73.9681889,28.2833284 L77.6050421,13.4059534 Z" id="iconTelegram"></path>
        </g>
    </g>
</svg>