<?xml version="1.0" encoding="UTF-8"?>
<svg width="20px" height="20px" viewBox="0 0 20 20" version="1.1" xmlns="http://www.w3.org/2000/svg" xmlns:xlink="http://www.w3.org/1999/xlink">
    <title>iconCheck</title>
    <g id="Page-1" stroke="none" stroke-width="1" fill="none" fill-rule="evenodd">
        <g id="Artboard" transform="translate(-126.000000, -75.000000)" fill="#06D6A0" fill-rule="nonzero">
            <path d="M135.99456,75 C136.667478,75 137.318547,75.2392607 137.831449,75.6751274 C138.112601,75.9250719 138.387472,76.1563158 138.631127,76.3561991 C139.084104,76.7451454 139.648136,76.9812692 140.243054,77.0310051 L141.280266,77.1121176 C141.951296,77.1637292 142.582002,77.4531957 143.058475,77.9285843 C143.535136,78.4039328 143.826173,79.0340356 143.879203,79.7050661 C143.910583,80.0798825 143.966749,80.4423161 143.966749,80.7546885 C144.015389,81.3475989 144.246793,81.9108276 144.628984,82.3666158 C144.83531,82.5977232 145.066401,82.8851413 145.310088,83.1663055 C145.749995,83.6765169 145.993024,84.327184 145.995479,85.0008654 C145.997586,85.6745469 145.758928,86.326941 145.32262,86.8401246 L144.641548,87.6335368 C144.259213,88.0893251 144.027949,88.6525537 143.979313,89.2454641 C143.954211,89.5578646 143.891767,89.9202701 143.891767,90.2950865 C143.83887,90.9667597 143.547997,91.5976256 143.071524,92.073938 C142.595212,92.5504272 141.964346,92.8413075 141.292673,92.8941802 L140.249316,92.9817271 C139.654839,93.0238999 139.089884,93.2561238 138.637389,93.6439616 L137.837711,94.3250333 C137.324849,94.7607393 136.67374,95 136.000821,95 C135.327783,95 134.676834,94.7607393 134.163932,94.3250333 L133.364254,93.6439616 C132.914129,93.2562885 132.351021,93.0239321 131.758436,92.9817271 L130.708813,92.8941802 C130.037622,92.8400383 129.407535,92.5488848 128.931367,92.0726929 C128.4552,91.596501 128.164006,90.9664384 128.109876,90.2950865 C128.078496,89.9202701 128.02233,89.5578365 128.02233,89.2454641 C127.979996,88.651148 127.747776,88.0860316 127.360095,87.6335368 L126.679023,86.8401246 C126.240831,86.3283468 126,85.6769166 126,85.0032351 C126,84.3295537 126.240827,83.6781235 126.679023,83.1663457 C126.922662,82.8851933 127.153938,82.5977711 127.360095,82.3666678 C127.747768,81.914173 127.979968,81.3490566 128.022173,80.7547405 C128.053553,80.44234 128.109719,80.0799345 128.109719,79.7051181 C128.165428,79.0365777 128.456621,78.4094873 128.931367,77.9358257 C129.406314,77.4619915 130.034047,77.1723683 130.702708,77.118552 L131.752331,77.0310051 C132.345402,76.9812411 132.907385,76.7449807 133.357992,76.3561991 C133.601631,76.1561792 133.876518,75.9250598 134.15767,75.6751274 C134.670532,75.2392607 135.321641,75 135.99456,75 Z M139.692602,82.4436446 L135.454884,86.2366867 L132.568133,83.954129 L131.426854,85.431113 L134.934576,88.2337628 C135.100438,88.3692587 135.308,88.4432231 135.522101,88.4436446 C135.757256,88.4436446 135.984417,88.3570345 136.159741,88.200257 L140.968152,83.8618276 L139.692602,82.4436446 Z" id="iconCheck"></path>
        </g>
    </g>
</svg>