<?xml version="1.0" encoding="UTF-8"?>
<svg width="20px" height="20px" viewBox="0 0 20 20" version="1.1" xmlns="http://www.w3.org/2000/svg" xmlns:xlink="http://www.w3.org/1999/xlink">
    <title>iconFacebook</title>
    <g id="Page-1" stroke="none" stroke-width="1" fill="none" fill-rule="evenodd">
        <g id="Artboard" transform="translate(-45.000000, -66.000000)" fill="#FFFFFF" fill-rule="nonzero">
            <path d="M64.2,66 L45.8,66 C45.3575,66 45,66.3575 45,66.8 L45,85.2 C45,85.6425 45.3575,86 45.8,86 L64.2,86 C64.6425,86 65,85.6425 65,85.2 L65,66.8 C65,66.3575 64.6425,66 64.2,66 Z M63.4,84.4 L58.7975,84.4 L58.7975,78.255 L61.3975,78.255 L61.7875,75.2375 L58.7975,75.2375 L58.7975,73.31 C58.7975,72.435 59.04,71.84 60.2925,71.84 L61.89,71.84 L61.89,69.14 C61.6125,69.1025 60.665,69.02 59.56,69.02 C57.255,69.02 55.6775,70.4275 55.6775,73.01 L55.6775,75.235 L53.0725,75.235 L53.0725,78.2525 L55.68,78.2525 L55.68,84.4 L46.6,84.4 L46.6,67.6 L63.4,67.6 L63.4,84.4 Z" id="iconFacebook"></path>
        </g>
    </g>
</svg>