<?xml version="1.0" encoding="UTF-8"?>
<svg width="28px" height="20px" viewBox="0 0 28 20" version="1.1" xmlns="http://www.w3.org/2000/svg" xmlns:xlink="http://www.w3.org/1999/xlink">
    <title>iconYoutube</title>
    <g id="Page-1" stroke="none" stroke-width="1" fill="none" fill-rule="evenodd">
        <g id="Artboard" transform="translate(-11.000000, -11.000000)" fill="#FFFFFF" fill-rule="nonzero">
            <path d="M39,20.91382 C39,20.84611 39,20.76916 38.9969,20.6799 C38.9938,20.43059 38.9875,20.15051 38.9813,19.85195 C38.9563,18.99323 38.9125,18.13758 38.8438,17.33118 C38.75,16.22007 38.6125,15.29363 38.425,14.59803 C38.2271,13.87211 37.8393,13.21006 37.3002,12.67804 C36.7612,12.14603 36.0898,11.762684 35.3531,11.566328 C34.4688,11.33241 32.7375,11.18775 30.3,11.0984917 C29.1406,11.0554016 27.9,11.0277006 26.6594,11.0123113 C26.225,11.0061556 25.8219,11.0030779 25.4594,11 L24.5406,11 C24.1781,11.0030779 23.775,11.0061556 23.3406,11.0123113 C22.1,11.0277006 20.85938,11.0554016 19.7,11.0984917 C17.2625,11.190828 15.52812,11.335488 14.64687,11.566328 C13.91,11.762202 13.23834,12.14538 12.6992,12.67747 C12.16006,13.20957 11.772375,13.87187 11.575,14.59803 C11.384375,15.29363 11.25,16.22007 11.15625,17.33118 C11.0875,18.13758 11.04375,18.99323 11.01875,19.85195 C11.0093749,20.15051 11.00625,20.43059 11.003125,20.6799 C11.003125,20.76916 11,20.84611 11,20.91382 L11,21.0862 C11,21.1539 11,21.2308 11.003125,21.3201 C11.00625,21.5694 11.0125,21.8495 11.01875,22.148 C11.04375,23.0068 11.0875,23.8624 11.15625,24.6688 C11.25,25.7799 11.3875,26.7064 11.575,27.402 C11.975,28.8763 13.15,30.0397 14.64687,30.4337 C15.52812,30.6676 17.2625,30.8122 19.7,30.9015 C20.85938,30.9446 22.1,30.9723 23.3406,30.9877 C23.775,30.9938 24.1781,30.9969 24.5406,31 L25.4594,31 C25.8219,30.9969 26.225,30.9938 26.6594,30.9877 C27.9,30.9723 29.1406,30.9446 30.3,30.9015 C32.7375,30.8092 34.4719,30.6645 35.3531,30.4337 C36.85,30.0397 38.025,28.8793 38.425,27.402 C38.6156,26.7064 38.75,25.7799 38.8438,24.6688 C38.9125,23.8624 38.9563,23.0068 38.9813,22.148 C38.9906,21.8495 38.9938,21.5694 38.9969,21.3201 C38.9969,21.2308 39,21.1539 39,21.0862 L39,20.91382 Z M36.75,21.0739 C36.75,21.1385 36.75,21.2093 36.7469,21.2924 C36.7438,21.5325 36.7375,21.7972 36.7313,22.0834 C36.7094,22.9021 36.6656,23.7208 36.6,24.4811 C36.5156,25.4721 36.3969,26.2847 36.25,26.8295 C36.0562,27.5405 35.4875,28.1037 34.7687,28.2915 C34.1125,28.4638 32.4594,28.6023 30.2125,28.6854 C29.075,28.7285 27.85,28.7562 26.6281,28.7716 C26.2,28.7778 25.8031,28.7809 25.4469,28.7809 L24.5531,28.7809 L23.3719,28.7716 C22.15,28.7562 20.92813,28.7285 19.7875,28.6854 C17.54063,28.5993 15.88437,28.4638 15.23125,28.2915 C14.5125,28.1006 13.94375,27.5405 13.75,26.8295 C13.60313,26.2847 13.48438,25.4721 13.4,24.4811 C13.33438,23.7208 13.29375,22.9021 13.26875,22.0834 C13.25938,21.7972 13.25625,21.5294 13.25313,21.2924 C13.25313,21.2093 13.25,21.1354 13.25,21.0739 L13.25,20.92613 C13.25,20.8615 13.25,20.7907 13.25313,20.7076 C13.25625,20.46753 13.2625,20.20283 13.26875,19.91659 C13.29063,19.09787 13.33438,18.27916 13.4,17.51893 C13.48438,16.52785 13.60313,15.7153 13.75,15.17051 C13.94375,14.45953 14.5125,13.89628 15.23125,13.70853 C15.8875,13.53616 17.54063,13.39766 19.7875,13.31456 C20.925,13.27147 22.15,13.24377 23.3719,13.22838 C23.8,13.22222 24.1969,13.21914 24.5531,13.21914 L25.4469,13.21914 L26.6281,13.22838 C27.85,13.24377 29.0719,13.27147 30.2125,13.31456 C32.4594,13.40074 34.1156,13.53616 34.7687,13.70853 C35.4875,13.89935 36.0562,14.45953 36.25,15.17051 C36.3969,15.7153 36.5156,16.52785 36.6,17.51893 C36.6656,18.27916 36.7063,19.09787 36.7313,19.91659 C36.7406,20.20283 36.7438,20.47061 36.7469,20.7076 C36.7469,20.7907 36.75,20.86457 36.75,20.92613 L36.75,21.0739 Z M22.2188,25.1243 L29.4688,20.96922 L22.2188,16.87565 L22.2188,25.1243 Z" id="iconYoutube"></path>
        </g>
    </g>
</svg>