<?xml version="1.0" encoding="UTF-8"?>
<svg width="20px" height="20px" viewBox="0 0 20 20" version="1.1" xmlns="http://www.w3.org/2000/svg" xmlns:xlink="http://www.w3.org/1999/xlink">
    <title>iconImportant</title>
    <g id="Page-1" stroke="none" stroke-width="1" fill="none" fill-rule="evenodd">
        <g id="Artboard" transform="translate(-101.000000, -76.000000)" fill="#6C47FF" fill-rule="nonzero">
            <path d="M111,76 C105.477143,76 101,80.4771429 101,86 C101,91.5228571 105.477143,96 111,96 C116.522857,96 121,91.5228571 121,86 C121,80.4771429 116.522857,76 111,76 Z M112.045893,89.8914286 C112.045893,90.3516786 111.669357,90.7282143 111.209107,90.7282143 L110.790714,90.7282143 C110.330464,90.7282143 109.953929,90.3516786 109.953929,89.8914286 L109.953929,89.5015 C109.953929,89.04125 110.330464,88.6647143 110.790714,88.6647143 L111.209107,88.6647143 C111.669357,88.6647143 112.045893,89.04125 112.045893,89.5015 L112.045893,89.8914286 Z M112.045893,86.1232143 C112.045893,86.5834643 111.669357,86.96 111.209107,86.96 L110.790714,86.96 C110.330464,86.96 109.953929,86.5834643 109.953929,86.1232143 L109.953789,81.3557143 C109.953789,80.8954643 110.330325,80.5189286 110.790575,80.5189286 L111.208968,80.5189286 C111.669218,80.5189286 112.045753,80.8954643 112.045753,81.3557143 L112.045893,86.1232143 Z" id="iconImportant"></path>
        </g>
    </g>
</svg>